<svg width="488" height="142" viewBox="0 0 488 142" fill="none" xmlns="http://www.w3.org/2000/svg">
<path d="M68 82H109V93H68V82Z" fill="#C49A6C"/>
<path fill-rule="evenodd" clip-rule="evenodd" d="M0 59.9923C0 44.9319 12.2089 32.7231 27.2692 32.7231H81.8077C96.8681 32.7231 109.077 44.9319 109.077 59.9923V65.4462H98.1692C98.1692 49.4886 90.3924 43.6308 76.3539 43.6308H32.7231C17.1695 43.6308 10.9077 48.9836 10.9077 65.4462V109.077C10.9077 124.227 17.6745 130.892 32.7231 130.892H76.3539C91.4024 130.892 98.1692 123.217 98.1692 109.077V81.8077H109.077V114.531C109.077 129.591 96.8681 141.8 81.8077 141.8H27.2692C12.2089 141.8 0 129.591 0 114.531V59.9923Z" fill="#C49A6C"/>
<path fill-rule="evenodd" clip-rule="evenodd" d="M65.4461 59.9923H38.1769H27.2692V70.9V81.8077V92.7154V103.623V114.531H38.1769H65.4461C74.4824 114.531 81.8077 107.205 81.8077 98.1692C81.8077 93.9787 80.2323 90.1562 77.6415 87.2615C80.2323 84.3669 81.8077 80.5443 81.8077 76.3538C81.8077 67.3176 74.4824 59.9923 65.4461 59.9923ZM38.1769 103.623H65.4461C68.4582 103.623 70.9 101.181 70.9 98.1692C70.9 95.1572 68.4582 92.7154 65.4461 92.7154H38.1769V103.623ZM38.1769 81.8077H65.4461C68.4582 81.8077 70.9 79.3659 70.9 76.3538C70.9 73.3418 68.4582 70.9 65.4462 70.9H38.1769V81.8077Z" fill="#C49A6C"/>
<path fill-rule="evenodd" clip-rule="evenodd" d="M27.2692 0L45.4578 10.9077H45.5396L54.6339 0L63.6646 10.8314L81.7259 0V10.9077H81.8077V21.8154H27.2692V10.9077V0Z" fill="#C49A6C"/>
<path d="M174.919 60.4336V71.0228H199.654C199.195 82.4336 196.436 87.9108 178.689 87.9108C162.873 87.9108 157.631 83.8029 157.631 65.4544C157.631 46.9232 162.965 43.0892 179.149 43.0892C189.08 43.0892 194.781 45.8278 198.459 50.8485L208.39 43.7282C202.873 36.5166 193.953 32.5 178.689 32.5C153.953 32.5 145.769 40.7158 145.769 65.4544C145.769 90.2842 153.953 98.5 178.689 98.5C210.781 98.5 211.609 80.6992 211.609 71.0228V60.4336H174.919Z" fill="#070657"/>
<path d="M251.792 98.5C276.528 98.5 284.712 90.2842 284.712 65.4544C284.712 40.7158 276.528 32.5 251.792 32.5C227.057 32.5 218.873 40.7158 218.873 65.4544C218.873 90.2842 227.057 98.5 251.792 98.5ZM251.792 87.9108C235.976 87.8195 230.735 83.8029 230.735 65.4544C230.735 47.1971 235.976 43.1805 251.792 43.0892C267.609 43.1805 272.85 47.1971 272.85 65.4544C272.85 83.8029 267.609 87.8195 251.792 87.9108Z" fill="#070657"/>
<path d="M344.38 63.2635C346.495 60.7988 347.69 57.4212 347.69 52.6743V51.7614C347.69 41.6286 341.805 33.5954 329.299 33.5954H294.357V97.4958H332.058C346.219 97.4958 350.449 88.0021 350.449 78.5996V77.2303C350.449 70.2012 348.518 65.9108 344.38 63.2635ZM328.38 44.1846C335 44.1846 336.104 47.471 336.104 51.7614V52.6743C336.104 59.3382 334.816 59.7946 320.196 59.7946H305.943V44.1846H328.38ZM331.138 86.9066H305.943V69.471H323.322C335.736 69.471 338.862 70.0187 338.862 77.2303V78.5996C338.862 82.1598 339.414 86.9066 331.138 86.9066Z" fill="#070657"/>
<path d="M403.499 97.4958H417.844L400.832 74.4917C411.315 73.4876 416.189 67.4627 416.189 57.8776V50.3921C416.189 39.8942 410.304 33.6867 397.798 33.6867H371.683V33.5954H360.097V97.4046H371.683V74.583H386.671L403.499 97.4958ZM371.683 44.2759H396.878C403.499 44.2759 404.602 45.7365 404.602 50.3921V57.8776C404.602 62.5332 403.499 63.9938 396.878 63.9938H371.683V44.2759Z" fill="#070657"/>
<path d="M454.85 98.5C479.585 98.5 487.769 90.2842 487.769 65.4544C487.769 40.7158 479.585 32.5 454.85 32.5C430.114 32.5 421.93 40.7158 421.93 65.4544C421.93 90.2842 430.114 98.5 454.85 98.5ZM454.85 87.9108C439.034 87.8195 433.792 83.8029 433.792 65.4544C433.792 47.1971 439.034 43.1805 454.85 43.0892C470.666 43.1805 475.907 47.1971 475.907 65.4544C475.907 83.8029 470.666 87.8195 454.85 87.9108Z" fill="#070657"/>
<path d="M155.386 141L146.95 114.704V114.4H152.08L157.818 133.78L164.24 115.16H168.04L174.5 133.78L180.238 114.4H185.33V114.704L176.932 141H172.41L166.14 122.76L159.87 141H155.386Z" fill="#A6A6A6"/>
<path d="M197.398 136.364H213.738V141H193.104H192.458V114.4H197.398H213.434V119.036H197.398V125.344H207.544V129.98H197.398V136.364Z" fill="#A6A6A6"/>
<path d="M221.649 141V114.4H236.241C237.052 114.4 237.888 114.527 238.749 114.78C239.636 115.033 240.446 115.451 241.181 116.034C241.916 116.617 242.536 117.389 243.043 118.352C243.55 119.289 243.803 120.379 243.803 121.62C243.803 122.912 243.512 124.052 242.929 125.04C242.346 126.003 241.561 126.75 240.573 127.282C242.017 127.687 243.195 128.46 244.107 129.6C245.044 130.74 245.513 132.146 245.513 133.818C245.513 134.603 245.374 135.414 245.095 136.25C244.842 137.061 244.398 137.821 243.765 138.53C243.157 139.239 242.359 139.835 241.371 140.316C240.383 140.772 239.243 141 237.951 141H221.649ZM226.589 125.572H235.329C236.393 125.572 237.242 125.268 237.875 124.66C238.534 124.027 238.863 123.191 238.863 122.152C238.863 121.113 238.534 120.29 237.875 119.682C237.242 119.049 236.393 118.732 235.329 118.732H226.589V125.572ZM226.589 136.63H237.001C238.065 136.63 238.926 136.326 239.585 135.718C240.244 135.085 240.573 134.249 240.573 133.21C240.573 132.171 240.244 131.335 239.585 130.702C238.926 130.069 238.065 129.752 237.001 129.752H226.589V136.63Z" fill="#A6A6A6"/>
<path d="M277.608 141.456C272.693 141.456 268.627 140.189 265.41 137.656L267.804 133.514C270.21 135.769 273.554 136.896 277.836 136.896C279.938 136.896 281.585 136.554 282.776 135.87C283.966 135.161 284.562 134.185 284.562 132.944C284.562 132.387 284.384 131.956 284.03 131.652C283.7 131.323 283.042 131.044 282.054 130.816C281.091 130.563 279.356 130.271 276.848 129.942C274.137 129.562 272.148 129.182 270.882 128.802C269.64 128.397 268.652 127.903 267.918 127.32C267.208 126.737 266.676 126.053 266.322 125.268C265.967 124.483 265.79 123.583 265.79 122.57C265.79 121.303 266.056 120.138 266.588 119.074C267.145 117.985 267.918 117.06 268.906 116.3C269.919 115.54 271.122 114.957 272.516 114.552C273.909 114.147 275.416 113.944 277.038 113.944C278.811 113.944 280.432 114.185 281.902 114.666C283.371 115.122 284.663 115.806 285.778 116.718C286.918 117.605 287.792 118.694 288.4 119.986L284.334 122.19C283.878 121.05 283.016 120.151 281.75 119.492C280.483 118.808 278.849 118.466 276.848 118.466C275.302 118.466 274.086 118.656 273.2 119.036C272.313 119.391 271.68 119.847 271.3 120.404C270.92 120.936 270.73 121.544 270.73 122.228C270.73 123.14 271.198 123.811 272.136 124.242C273.073 124.647 274.948 125.04 277.76 125.42C280.774 125.8 282.915 126.18 284.182 126.56C285.448 126.915 286.449 127.383 287.184 127.966C287.944 128.523 288.514 129.207 288.894 130.018C289.274 130.803 289.464 131.728 289.464 132.792C289.464 134.16 289.16 135.389 288.552 136.478C287.969 137.567 287.146 138.479 286.082 139.214C285.018 139.949 283.751 140.506 282.282 140.886C280.838 141.266 279.28 141.456 277.608 141.456Z" fill="#A6A6A6"/>
<path d="M302.258 136.364H318.598V141H297.964H297.318V114.4H302.258H318.294V119.036H302.258V125.344H312.404V129.98H302.258V136.364Z" fill="#A6A6A6"/>
<path d="M344.37 130.664L351.21 140.734V141H345.966L339.43 131.31H331.45V141H326.51V114.4H331.45H340.684C341.596 114.4 342.558 114.539 343.572 114.818C344.585 115.097 345.598 115.616 346.612 116.376C347.625 117.136 348.385 118.111 348.892 119.302C349.424 120.467 349.69 121.658 349.69 122.874C349.69 123.811 349.512 124.787 349.158 125.8C348.828 126.813 348.233 127.763 347.372 128.65C346.536 129.537 345.535 130.208 344.37 130.664ZM331.45 118.922V126.94H340.266C341.203 126.94 342.039 126.737 342.774 126.332C343.508 125.901 344.015 125.369 344.294 124.736C344.598 124.103 344.75 123.507 344.75 122.95C344.75 122.367 344.598 121.759 344.294 121.126C344.015 120.493 343.508 119.973 342.774 119.568C342.039 119.137 341.203 118.922 340.266 118.922H331.45Z" fill="#A6A6A6"/>
<path d="M365.921 141L354.597 114.704V114.4H359.841L368.429 135.11L377.017 114.4H382.261V114.704L370.975 141H365.921Z" fill="#A6A6A6"/>
<path d="M389.015 114.4H393.955V141H389.015V114.4Z" fill="#A6A6A6"/>
<path d="M416.013 141.456C413.987 141.456 412.112 141.101 410.389 140.392C408.667 139.683 407.197 138.707 405.981 137.466C404.765 136.199 403.828 134.73 403.169 133.058C402.511 131.361 402.181 129.575 402.181 127.7C402.181 125.825 402.498 124.052 403.131 122.38C403.79 120.683 404.715 119.213 405.905 117.972C407.121 116.705 408.578 115.717 410.275 115.008C411.998 114.299 413.873 113.944 415.899 113.944C418.635 113.944 421.042 114.577 423.119 115.844C425.222 117.085 426.767 118.719 427.755 120.746L423.613 123.14C423.005 121.747 422.03 120.645 420.687 119.834C419.345 119.023 417.787 118.618 416.013 118.618C414.671 118.618 413.442 118.859 412.327 119.34C411.213 119.796 410.263 120.442 409.477 121.278C408.717 122.089 408.135 123.051 407.729 124.166C407.349 125.281 407.159 126.459 407.159 127.7C407.159 129.271 407.514 130.778 408.223 132.222C408.933 133.666 409.997 134.781 411.415 135.566C412.859 136.351 414.43 136.744 416.127 136.744C417.901 136.744 419.471 136.339 420.839 135.528C422.207 134.692 423.195 133.603 423.803 132.26L427.945 134.654C426.957 136.681 425.412 138.327 423.309 139.594C421.207 140.835 418.775 141.456 416.013 141.456Z" fill="#A6A6A6"/>
<path d="M440.654 136.364H456.994V141H436.36H435.714V114.4H440.654H456.69V119.036H440.654V125.344H450.8V129.98H440.654V136.364Z" fill="#A6A6A6"/>
<path d="M475.28 141.456C470.366 141.456 466.3 140.189 463.082 137.656L465.476 133.514C467.883 135.769 471.227 136.896 475.508 136.896C477.611 136.896 479.258 136.554 480.448 135.87C481.639 135.161 482.234 134.185 482.234 132.944C482.234 132.387 482.057 131.956 481.702 131.652C481.373 131.323 480.714 131.044 479.726 130.816C478.764 130.563 477.028 130.271 474.52 129.942C471.81 129.562 469.821 129.182 468.554 128.802C467.313 128.397 466.325 127.903 465.59 127.32C464.881 126.737 464.349 126.053 463.994 125.268C463.64 124.483 463.462 123.583 463.462 122.57C463.462 121.303 463.728 120.138 464.26 119.074C464.818 117.985 465.59 117.06 466.578 116.3C467.592 115.54 468.795 114.957 470.188 114.552C471.582 114.147 473.089 113.944 474.71 113.944C476.484 113.944 478.105 114.185 479.574 114.666C481.044 115.122 482.336 115.806 483.45 116.718C484.59 117.605 485.464 118.694 486.072 119.986L482.006 122.19C481.55 121.05 480.689 120.151 479.422 119.492C478.156 118.808 476.522 118.466 474.52 118.466C472.975 118.466 471.759 118.656 470.872 119.036C469.986 119.391 469.352 119.847 468.972 120.404C468.592 120.936 468.402 121.544 468.402 122.228C468.402 123.14 468.871 123.811 469.808 124.242C470.746 124.647 472.62 125.04 475.432 125.42C478.447 125.8 480.588 126.18 481.854 126.56C483.121 126.915 484.122 127.383 484.856 127.966C485.616 128.523 486.186 129.207 486.566 130.018C486.946 130.803 487.136 131.728 487.136 132.792C487.136 134.16 486.832 135.389 486.224 136.478C485.642 137.567 484.818 138.479 483.754 139.214C482.69 139.949 481.424 140.506 479.954 140.886C478.51 141.266 476.952 141.456 475.28 141.456Z" fill="#A6A6A6"/>
</svg>
